<svg xmlns="http://www.w3.org/2000/svg" viewBox="0 0 32 32" width="32" height="32" fill="none">
  <!-- Minimalist ribbon bow design -->
  <path d="M16 13C17.5 9 20.5 7 23.5 7C27.5 7 29.5 10 26.5 14C23.5 18 18 16 16 14.5" stroke="#f43f5e" stroke-width="2" stroke-linecap="round" stroke-linejoin="round"/>
  <path d="M16 13C14.5 9 11.5 7 8.5 7C4.5 7 2.5 10 5.5 14C8.5 18 14 16 16 14.5" stroke="#f43f5e" stroke-width="2" stroke-linecap="round" stroke-linejoin="round"/>
  <path d="M15.5 14.5C13.5 17.5 10.5 21.5 7.5 23.5" stroke="#f43f5e" stroke-width="2" stroke-linecap="round" stroke-linejoin="round"/>
  <path d="M16.5 14.5C18.5 17.5 21.5 21.5 24.5 23.5" stroke="#f43f5e" stroke-width="2" stroke-linecap="round" stroke-linejoin="round"/>
  <circle cx="16" cy="14" r="2" fill="#f43f5e"/>
</svg>
